# xmcd CD database file
# Copyright (C) 1997 Ti Kan
# 
# Track frame offsets:
#     150
#     17450
#     36012
#     54835
#     75330
#     93777
#     111510
#     126885
#     139712
#     153987
#     167202
#     190907
#     205182
#     221090
# 
# Disc length: 3163 seconds
# 
# Revision: 1
# Processed by: cddbd v1.4b41PL1 Copyright (c) Steve Scherf et al.
# Submitted via: DiscPlay 4.0.3
# 
DISCID=b20c590e
DTITLE=various (country road songs) cd 2/2 - Harley Davidson Country Road So
DTITLE=ngs CD 2/2
DYEAR=1900
DGENRE=
TTITLE0=Any Ole Stretch Of Blacktop (Shenandoah)
TTITLE1=Let It Roll (Nitty Gritty Dirt Band)
TTITLE2=Texas Is Bigger Than It Used To Be  (Mark Chesnutt)
TTITLE3=Southbound  (Sammy Kersahw)
TTITLE4=Old Hippe  (The Bellamy Brothers)
TTITLE5=A bad Way Of Saying Goodbye  (Trace Adkins)
TTITLE6=Speed Of A Fool  (Tracy lawrence)
TTITLE7=White Line Fever  (Merle Haggard)
TTITLE8=Whiskey Bent And Hell Bound  (Hank Williams Jr.)
TTITLE9=Desolation Road  (John Bunzow)
TTITLE10=You Never Ever Called me By My Name  (David Allan Coe)
TTITLE11=Billy The Kid  (Billy Dean)
TTITLE12=Burnin' Up The Road  (McBride and The Ride)
TTITLE13=The Wheels Keep On Rollin'  Asleep At The Wheel)
EXTD=
EXTT0=
EXTT1=
EXTT2=
EXTT3=
EXTT4=
EXTT5=
EXTT6=
EXTT7=
EXTT8=
EXTT9=
EXTT10=
EXTT11=
EXTT12=
EXTT13=
PLAYORDER=
